<svg xmlns="http://www.w3.org/2000/svg" viewBox="0 0 900 700">
  <style>
    .title { font-size: 24px; font-weight: bold; font-family: -apple-system,BlinkMacSystemFont,"Segoe UI",Helvetica,Arial,sans-serif; }
    .axis-label { font-size: 14px; font-family: -apple-system,BlinkMacSystemFont,"Segoe UI",Helvetica,Arial,sans-serif; }
    .tick-label { font-size: 12px; font-family: -apple-system,BlinkMacSystemFont,"Segoe UI",Helvetica,Arial,sans-serif; }
    .bar { fill: #4F46E5; }
    .bar:hover { fill: #6366F1; }
    .grid { stroke: #eee; stroke-width: 1; }
  </style>

  <!-- Background -->
  <rect width="900" height="700" fill="white"/>
  
  <!-- Title -->
  <text x="450" y="50" text-anchor="middle" class="title">Serum Potassium Levels Distribution</text>
  
  <!-- Y-axis label -->
  <text x="50" y="300" transform="rotate(-90, 50, 300)" text-anchor="middle" class="axis-label">Number of Patients</text>
  
  <!-- Grid lines -->
  <g transform="translate(100, 80)">
    <line x1="0" y1="0" x2="750" y2="0" class="grid" />
    <line x1="0" y1="80" x2="750" y2="80" class="grid" />
    <line x1="0" y1="160" x2="750" y2="160" class="grid" />
    <line x1="0" y1="240" x2="750" y2="240" class="grid" />
    <line x1="0" y1="320" x2="750" y2="320" class="grid" />
  </g>
  
  <!-- Bars -->
  <g transform="translate(100, 400)">
    <!-- Bar for each data point -->
    <rect x="0" y="-63" width="55" height="63" class="bar" rx="4" />
    <rect x="68" y="-119" width="55" height="119" class="bar" rx="4" />
    <rect x="136" y="-124" width="55" height="124" class="bar" rx="4" />
    <rect x="204" y="-280" width="55" height="280" class="bar" rx="4" />
    <rect x="272" y="-334" width="55" height="334" class="bar" rx="4" />
    <rect x="340" y="-217" width="55" height="217" class="bar" rx="4" />
    <rect x="408" y="-194" width="55" height="194" class="bar" rx="4" />
    <rect x="476" y="-252" width="55" height="252" class="bar" rx="4" />
    <rect x="544" y="-161" width="55" height="161" class="bar" rx="4" />
    <rect x="612" y="-79" width="55" height="79" class="bar" rx="4" />
    <rect x="680" y="-105" width="55" height="105" class="bar" rx="4" />
    
    <!-- X-axis labels with adjusted positioning -->
    <g transform="translate(0, 40)">
      <!-- Each label is positioned relative to its bar -->
      <g transform="translate(27, 0)">
        <text transform="rotate(-45)" text-anchor="end" class="tick-label">3.5-4.0 mEq/L</text>
      </g>
      <g transform="translate(95, 0)">
        <text transform="rotate(-45)" text-anchor="end" class="tick-label">4.0-4.5 mEq/L</text>
      </g>
      <g transform="translate(163, 0)">
        <text transform="rotate(-45)" text-anchor="end" class="tick-label">4.5-5.0 mEq/L</text>
      </g>
      <g transform="translate(231, 0)">
        <text transform="rotate(-45)" text-anchor="end" class="tick-label">5.0-5.5 mEq/L</text>
      </g>
      <g transform="translate(299, 0)">
        <text transform="rotate(-45)" text-anchor="end" class="tick-label">5.5-6.0 mEq/L</text>
      </g>
      <g transform="translate(367, 0)">
        <text transform="rotate(-45)" text-anchor="end" class="tick-label">6.0-6.5 mEq/L</text>
      </g>
      <g transform="translate(435, 0)">
        <text transform="rotate(-45)" text-anchor="end" class="tick-label">6.5-7.0 mEq/L</text>
      </g>
      <g transform="translate(503, 0)">
        <text transform="rotate(-45)" text-anchor="end" class="tick-label">7.0-7.5 mEq/L</text>
      </g>
      <g transform="translate(571, 0)">
        <text transform="rotate(-45)" text-anchor="end" class="tick-label">7.5-8.0 mEq/L</text>
      </g>
      <g transform="translate(639, 0)">
        <text transform="rotate(-45)" text-anchor="end" class="tick-label">8.0-8.5 mEq/L</text>
      </g>
      <g transform="translate(707, 0)">
        <text transform="rotate(-45)" text-anchor="end" class="tick-label">≥8.5 mEq/L</text>
      </g>
    </g>
  </g>
  
  <!-- Y-axis labels -->
  <g transform="translate(90, 400)">
    <text x="0" y="0" text-anchor="end" class="tick-label">0</text>
    <text x="0" y="-80" text-anchor="end" class="tick-label">40</text>
    <text x="0" y="-160" text-anchor="end" class="tick-label">80</text>
    <text x="0" y="-240" text-anchor="end" class="tick-label">120</text>
    <text x="0" y="-320" text-anchor="end" class="tick-label">160</text>
  </g>

  <!-- X-axis line -->
  <line x1="100" y1="400" x2="850" y2="400" stroke="black" stroke-width="1"/>
</svg>
